<?xml version="1.0" encoding="utf-8"?>
<!-- Generator: Adobe Illustrator 24.1.2, SVG Export Plug-In . SVG Version: 6.00 Build 0)  -->
<svg version="1.1" id="레이어_1" xmlns="http://www.w3.org/2000/svg" xmlns:xlink="http://www.w3.org/1999/xlink" x="0px"
	 y="0px" viewBox="0 0 130.4 44.4" style="enable-background:new 0 0 130.4 44.4;" xml:space="preserve">
<style type="text/css">
	.st0{fill:#004EA2;}
	.st1{fill:#FFFFFF;}
	.st2{fill:url(#SVGID_1_);}
	.st3{fill:url(#SVGID_2_);}
	.st4{fill:url(#SVGID_3_);}
</style>
<g>
	<path class="st0" d="M185.2,402.8h1.8v3.6h3.6v-3.6h1.8v8.9h-1.8v-3.9H187v3.9h-1.8V402.8z"/>
	<path class="st0" d="M198,402.7c2.8,0,4.3,1.9,4.3,4.6c0,2.7-1.5,4.6-4.3,4.6c-2.8,0-4.3-1.9-4.3-4.6
		C193.6,404.5,195.2,402.7,198,402.7z M198,410.4c1.8,0,2.5-1.6,2.5-3.2c0-1.6-0.7-3.2-2.5-3.2c-1.8,0-2.5,1.6-2.5,3.2
		C195.5,408.8,196.2,410.4,198,410.4z"/>
	<path class="st0" d="M208.3,404.4c-0.6-0.2-1.2-0.4-1.8-0.4c-0.6,0-1.4,0.3-1.4,1.2c0,1.5,3.9,0.9,3.9,3.9c0,1.9-1.5,2.7-3.3,2.7
		c-1,0-1.4-0.1-2.3-0.3l0.2-1.6c0.6,0.3,1.3,0.5,2,0.5c0.7,0,1.6-0.3,1.6-1.1c0-1.7-3.9-1-3.9-3.9c0-2,1.5-2.7,3.1-2.7
		c0.8,0,1.5,0.1,2.1,0.3L208.3,404.4z"/>
	<path class="st0" d="M210.5,402.8h2.2c1.9,0,3.7,0.6,3.7,2.7c0,2.1-1.5,2.8-3.4,2.8h-0.7v3.4h-1.8V402.8z M212.2,406.9h0.6
		c0.9,0,1.7-0.3,1.7-1.3c0-1-0.8-1.4-1.7-1.4h-0.6V406.9z"/>
	<path class="st0" d="M217.5,402.8h1.8v8.9h-1.8V402.8z"/>
	<path class="st0" d="M222.8,404.2h-2.5v-1.4h6.9v1.4h-2.5v7.5h-1.8V404.2z"/>
	<path class="st0" d="M229.8,402.8h2l3.5,8.9h-2l-0.8-2H229l-0.8,2h-1.8L229.8,402.8z M230.8,404.6L230.8,404.6l-1.3,3.7h2.6
		L230.8,404.6z"/>
	<path class="st0" d="M236.4,402.8h1.8v7.5h3.4v1.4h-5.2V402.8z"/>
	<path class="st0" d="M194.7,384.6c-1-0.4-2.1-0.7-3.2-0.7c-1.1,0-2.5,0.5-2.5,2.2c0,2.7,6.9,1.6,6.9,6.9c0,3.5-2.7,4.8-5.9,4.8
		c-1.7,0-2.5-0.2-4.1-0.6l0.3-2.9c1.1,0.6,2.3,1,3.6,1c1.2,0,2.8-0.6,2.8-2c0-3-6.9-1.8-6.9-7c0-3.5,2.7-4.8,5.5-4.8
		c1.4,0,2.6,0.2,3.8,0.6L194.7,384.6z"/>
	<path class="st0" d="M198.8,381.7h9.3v2.5H202v3.9h5.6v2.5H202v4.4h6.2v2.5h-9.4V381.7z"/>
	<path class="st0" d="M210.1,394.8c0.4,0.2,0.9,0.3,1.5,0.3c2.1,0,2.1-1.7,2.1-2.8v-10.5h3.2v12.1c0,1.7-1.1,4-4.3,4
		c-0.9,0-1.5-0.1-2.4-0.3V394.8z"/>
	<path class="st0" d="M227.1,381.4c5,0,7.8,3.4,7.8,8.1c0,4.8-2.7,8.2-7.8,8.2c-5.1,0-7.8-3.4-7.8-8.2
		C219.3,384.7,222,381.4,227.1,381.4z M227.1,395.3c3.2,0,4.4-2.9,4.4-5.7c0-2.8-1.3-5.6-4.4-5.6s-4.4,2.9-4.4,5.6
		C222.6,392.4,223.8,395.3,227.1,395.3z"/>
	<path class="st0" d="M237.4,381.7h3.9l6,11.8h0v-11.8h3v15.8h-3.9l-6.1-11.8h0v11.8h-3V381.7z"/>
	<path class="st0" d="M266.3,384.8c-1.2-0.6-2.8-0.8-4.1-0.8c-3.7,0-5.7,2.5-5.7,5.7c0,3.2,2,5.6,5.4,5.6c0.9,0,1.5-0.1,2.1-0.2
		v-4.1h-3.4v-2.5h6.4v8.5c-1.7,0.5-3.4,0.8-5.1,0.8c-5.1,0-8.7-2.6-8.7-7.9c0-5.4,3.3-8.5,8.7-8.5c1.8,0,3.3,0.3,4.7,0.7
		L266.3,384.8z"/>
	<g>
		<g>
			<path class="st1" d="M132.4,401.9c0,7.5,4.2,10.5,11.1,10.6h33v-33.4c0-7.5-4.2-10.5-11.1-10.6h-33V401.9z"/>
		</g>
		<g>
			<path class="st0" d="M165.3,368.5h-22.2v5.3h5.5v5.5h-5.5v5.5h-5.5v-5.5h-5.2v22.7c0,7.5,4.2,10.5,11.1,10.6h33v-33.4
				C176.4,371.6,172.2,368.6,165.3,368.5z M143.4,404.1c0,1.5-0.9,2.4-2.3,2.4h-3.7v-1.8h3.5c0.7,0,0.7-0.6,0.7-0.9v-7h1.9V404.1z
				 M152.7,405.4L152.7,405.4c-0.6,0.7-1.6,1.1-2.8,1.2c-1.4,0-2,0-2,0c-1.2,0-2.2-0.4-2.8-1.2c-0.6-0.7-0.9-2.4-0.9-3.7
				c0-1.3,0.2-3,0.9-3.8c0.6-0.7,1.6-1.1,2.8-1.2c0,0,0.6,0,2,0c1.2,0,2.2,0.4,2.8,1.2c0.6,0.7,0.9,2.5,0.9,3.8
				C153.6,402.9,153.4,404.7,152.7,405.4z M162.4,406.5h-0.3h-1.6h-0.1l-4.1-6.6v6.6h-1.9v-9.6h0.3h1.6h0.1l4.1,6.5v-6.5h1.9V406.5z
				 M161.6,394.2c-0.3,0.2-0.8,0.3-1.3,0.3h-5.9v-1.8h5.5c0.7,0,1-0.8,1-1.1c0-0.3-0.2-1.1-1-1.1h-3.4c-0.7,0-1.3-0.2-1.7-0.7
				c-0.4-0.4-0.8-1.4-0.8-2.2c0-1,0.5-2.1,1.2-2.5c0.3-0.2,0.8-0.3,1.3-0.3h5.8v1.8H157c-0.7,0-1,0.8-1,1.1c0,0.5,0.4,1.1,1,1.1h3.4
				c0.7,0,1.3,0.2,1.7,0.7c0.4,0.4,0.8,1.4,0.8,2.2C162.8,392.7,162.3,393.8,161.6,394.2z M167.3,384.9h4.2v1.8h-4.1
				c-1.2,0-2,0.8-2.2,2.2h6.3v1.7h-6.3c0.2,1.4,1,2.2,2.2,2.2h4.1v1.8h-4.2c-2.4,0-4-1.9-4-4.8C163.3,386.8,164.8,384.9,167.3,384.9
				z M171.6,402.5v2.2v0.9v0.9h-4.3c-2.4,0-4-1.9-4-4.8c0-2.9,1.6-4.8,4-4.8h4.2v1.8h-4.1c-1.4,0-2.3,1.1-2.3,3.1
				c0,1.9,0.8,3.1,2.3,3.1h2.3v-2.2h-2.1v-1.7h2.1h1.9V402.5z"/>
			<path class="st0" d="M151.3,399.1c-0.3-0.4-0.8-0.5-1.4-0.6c-0.6-0.1-1.9,0-1.9,0c-0.8,0-1.2,0.4-1.4,0.6h0
				c-0.4,0.5-0.4,1.9-0.4,2.5c0,0.6,0,2,0.4,2.5c0.2,0.3,0.6,0.5,1.4,0.6c0,0,1.2,0.1,1.9,0c0.6-0.1,1-0.2,1.4-0.5l0,0
				c0.4-0.5,0.4-1.9,0.4-2.5C151.7,401.1,151.7,399.6,151.3,399.1L151.3,399.1z"/>
			<rect x="132.4" y="368.5" class="st0" width="5.2" height="5.3"/>
		</g>
	</g>
</g>
<g>
	<rect x="69.1" y="16.2" class="st0" width="2.7" height="20.9"/>
	<path class="st0" d="M60.6,26c-0.6-1.4-0.9-3-0.9-5v-4.3h-2.8V21c0,1.9-0.3,3.6-1,5c-0.6,1.4-1.5,2.3-2.7,2.9v2
		c0.5-0.1,1-0.3,1.5-0.6c0.6-0.3,1.1-0.6,1.5-1c0.5-0.4,0.9-0.9,1.3-1.3c0.4-0.5,0.6-0.9,0.7-1.4c0.1,0.5,0.3,0.9,0.6,1.4
		c0.4,0.5,0.8,0.9,1.3,1.3c0.5,0.4,1,0.8,1.6,1c0.6,0.3,1.1,0.5,1.6,0.6v-2C62.1,28.4,61.2,27.4,60.6,26z"/>
	<polygon class="st0" points="64.7,22.7 61.3,22.7 61.3,24.5 64.7,24.5 64.7,37.1 67.4,37.1 67.4,16.2 64.7,16.2 	"/>
	<path class="st0" d="M83.2,28.6c-3.6,0-6.6,2.2-6.6,4.9c0,2.7,2.9,4.9,6.6,4.9c3.6,0,6.6-2.2,6.6-4.9
		C89.7,30.8,86.8,28.6,83.2,28.6z M83.2,36.5c-2.1,0-3.7-1.4-3.7-3c0-1.7,1.7-3,3.7-3c2.1,0,3.7,1.4,3.7,3
		C86.9,35.1,85.2,36.5,83.2,36.5z"/>
	<path class="st0" d="M75.8,16.5v1.8h6c-0.2,0.9-1.5,3.9-6.4,3.9v1.9c4.3,0,7.1-1.8,7.8-3.1c0.6,1.4,3.4,3.1,7.8,3.1v-1.9
		c-4.8,0-6.2-3.1-6.4-3.9h6v-1.8H75.8z"/>
	<polygon class="st0" points="127.7,16.2 127.7,28.6 123,28.6 123,30.4 127.7,30.4 127.7,32.6 130.4,32.6 130.4,16.2 	"/>
	<path class="st0" d="M119,35c-0.2-0.2-0.3-0.4-0.3-0.7V31H116v3.5c0,0.7,0.2,1.3,0.6,1.9c0.4,0.5,1,0.8,1.6,0.8h12.1v-1.8h-10.6
		C119.5,35.3,119.2,35.2,119,35z"/>
	<path class="st0" d="M119.8,25.1c3,0,5.5-2,5.5-4.5c0-2.5-2.4-4.5-5.5-4.5c-3,0-5.5,2-5.5,4.5C114.4,23,116.8,25.1,119.8,25.1z
		 M119.8,17.9c1.5,0,2.7,1.2,2.7,2.6c0,1.5-1.2,2.6-2.7,2.6c-1.5,0-2.7-1.2-2.7-2.6C117.1,19.1,118.3,17.9,119.8,17.9z"/>
	<polygon class="st0" points="118.5,30.4 121.1,30.4 121.1,27.5 126.7,27.5 126.7,25.7 112.9,25.7 112.9,27.5 118.5,27.5 	"/>
	<polygon class="st0" points="84.5,23.4 81.8,23.4 81.8,25.7 73,25.7 73,27.6 93.3,27.6 93.3,25.7 84.5,25.7 	"/>
	<path class="st0" d="M108.5,18.7h-4.2v-2h-2.7v3h-5v-3h-2.7V24c0,0.8,0.2,1.4,0.7,1.9c0.5,0.5,1.1,0.8,1.7,0.8h7.8v-1.9h4.2v3h2.7
		V16.2h-2.7V18.7z M101.7,24.9h-3.8c-0.3,0-0.6-0.1-0.8-0.3c-0.2-0.2-0.4-0.5-0.4-0.8v-2.2h5V24.9z M108.5,23h-4.2v-2.4h4.2V23z"/>
	<path class="st0" d="M105,28.1c-3.4,0-6.2,2.3-6.2,5.1c0,2.8,2.8,5.1,6.2,5.1c3.4,0,6.2-2.3,6.2-5.1
		C111.1,30.4,108.4,28.1,105,28.1z M105,36.5c-1.8,0-3.3-1.5-3.3-3.2c0-1.8,1.5-3.2,3.3-3.2c1.9,0,3.3,1.5,3.3,3.2
		C108.3,35,106.8,36.5,105,36.5z"/>
	<g>
		<g>
			<path class="st1" d="M33.2,0H0v33h0C0,40,3,44.4,10.7,44.4h33.7V10.7C44.4,3.1,40.1,0.1,33.2,0z"/>
		</g>
		<g>
			<path class="st0" d="M19,30.9c-0.3-0.4-0.8-0.5-1.4-0.6c-0.6-0.1-1.9,0-1.9,0c-0.8,0-1.2,0.4-1.4,0.6h0c-0.4,0.5-0.4,2-0.4,2.5
				c0,0.6,0,2,0.4,2.5c0.2,0.3,0.6,0.5,1.4,0.6c0,0,1.3,0.1,1.9,0c0.6-0.1,1.1-0.2,1.4-0.5l0,0c0.4-0.5,0.4-1.9,0.4-2.5
				C19.5,32.8,19.5,31.4,19,30.9L19,30.9z"/>
			<path class="st0" d="M33.2,0H10.8v5.3h5.5v5.5h-5.5v5.5H5.3v-5.5H0V33h0C0,40,3,44.4,10.7,44.4h33.7V10.7
				C44.4,3.1,40.1,0.1,33.2,0z M11.1,35.9c0,1.5-0.9,2.4-2.4,2.4H5v-1.8h3.5c0.7,0,0.7-0.6,0.7-0.9v-7.1h1.9V35.9z M20.5,37.2
				L20.5,37.2c-0.6,0.7-1.6,1.1-2.8,1.2c-1.4,0-2,0-2,0c-1.2,0-2.2-0.4-2.8-1.2c-0.6-0.7-0.9-2.5-0.9-3.8c0-1.3,0.2-3,0.9-3.8
				c0.6-0.7,1.6-1.1,2.8-1.2c0,0,0.6,0,2,0c1.2,0,2.2,0.4,2.8,1.2c0.6,0.7,0.9,2.5,0.9,3.8C21.4,34.7,21.1,36.4,20.5,37.2z
				 M30.2,38.3h-0.3h-1.6h-0.1l-4.2-6.7v6.7h-1.9v-9.7h0.3h1.6h0.1l4.1,6.6v-6.6h1.9V38.3z M29.4,25.9c-0.3,0.2-0.8,0.3-1.3,0.3h-6
				v-1.8h5.6c0.7,0,1-0.8,1-1.1c0-0.3-0.2-1.1-1-1.1h-3.4c-0.7,0-1.3-0.2-1.7-0.7c-0.4-0.4-0.8-1.4-0.8-2.2c0-1,0.5-2.1,1.3-2.5
				c0.3-0.2,0.8-0.3,1.3-0.3h5.9v1.8h-5.4c-0.7,0-1,0.8-1,1.1c0,0.5,0.4,1.1,1,1.1h3.4c0.7,0,1.3,0.2,1.7,0.7
				c0.4,0.4,0.8,1.4,0.8,2.2C30.7,24.4,30.2,25.5,29.4,25.9z M35.2,16.5h4.3v1.8h-4.1c-1.2,0-2,0.8-2.2,2.2h6.3v1.7h-6.3
				c0.2,1.4,1,2.3,2.2,2.3h4.1v1.8h-4.3c-2.5,0-4-1.9-4-4.9S32.7,16.5,35.2,16.5z M39.5,34.3v2.2v0.9v0.9h-4.4c-2.5,0-4-1.9-4-4.9
				c0-2.9,1.6-4.9,4-4.9h4.3v1.8h-4.1c-1.4,0-2.3,1.2-2.3,3.1c0,1.9,0.9,3.1,2.3,3.1h2.3v-2.2h-2.2v-1.7h2.2h1.9V34.3z"/>
			<rect class="st0" width="5.3" height="5.3"/>
		</g>
	</g>
</g>
<g>
	<g>
		<path class="st1" d="M195.5,477.8c0,8.5,4.8,12,12.6,12h37.4v-38c0-8.5-4.8-12-12.6-12h-37.4V477.8z"/>
	</g>
	<g>
		<radialGradient id="SVGID_1_" cx="195.7289" cy="439.6724" r="70.7306" gradientUnits="userSpaceOnUse">
			<stop  offset="0.35" style="stop-color:#21AEE5"/>
			<stop  offset="0.75" style="stop-color:#004EA2"/>
			<stop  offset="1" style="stop-color:#09297F"/>
		</radialGradient>
		<path class="st2" d="M232.9,439.8h-25.2v6h6.2v6.2h-6.2v6.2h-6.2V452h-6v25.8c0,8.5,4.8,12,12.6,12h37.4v-38
			C245.5,443.3,240.7,439.9,232.9,439.8z M208,480.2c0,1.7-1,2.7-2.6,2.7h-4.2v-2h4c0.8,0,0.8-0.6,0.8-1v-8h2.1V480.2z M218.6,481.7
			L218.6,481.7c-0.7,0.8-1.8,1.3-3.2,1.3c-1.6,0.1-2.3,0-2.3,0c-1.4,0-2.4-0.5-3.2-1.3c-0.7-0.8-1-2.8-1-4.2c0-1.5,0.3-3.4,1-4.3
			c0.7-0.8,1.8-1.3,3.2-1.3c0,0,0.7-0.1,2.3,0c1.4,0,2.4,0.5,3.2,1.3c0.7,0.8,1,2.8,1,4.3C219.6,478.9,219.3,480.9,218.6,481.7z
			 M229.5,483h-0.3h-1.8h-0.1l-4.7-7.5v7.5h-2.1V472h0.4h1.8h0.1l4.7,7.4V472h2.1V483z M228.6,469c-0.4,0.2-0.9,0.3-1.4,0.3h-6.7v-2
			h6.3c0.8,0,1.1-0.9,1.1-1.3c0-0.4-0.3-1.3-1.1-1.3h-3.8c-0.8,0-1.4-0.3-1.9-0.8c-0.5-0.5-0.9-1.6-0.9-2.4c0-1.1,0.6-2.4,1.4-2.9
			c0.4-0.2,0.9-0.4,1.4-0.4h6.6v2h-6.1c-0.8,0-1.1,0.9-1.1,1.2c0,0.6,0.4,1.3,1.1,1.3h3.8c0.8,0,1.4,0.3,1.9,0.8
			c0.5,0.5,0.9,1.6,0.9,2.5C230.1,467.3,229.5,468.5,228.6,469z M235.1,458.4h4.8v2h-4.6c-1.3,0-2.2,0.9-2.5,2.5h7.1v1.9h-7.1
			c0.2,1.6,1.1,2.5,2.5,2.5h4.6v2h-4.8c-2.8,0-4.6-2.2-4.6-5.5C230.5,460.6,232.3,458.4,235.1,458.4z M240,478.4v2.5v1v1h-4.9
			c-2.8,0-4.6-2.2-4.6-5.5c0-3.3,1.8-5.5,4.6-5.5h4.8v2h-4.6c-1.6,0-2.6,1.3-2.6,3.5c0,2.2,1,3.5,2.6,3.5h2.6v-2.5h-2.4v-1.9h2.4
			h2.1V478.4z"/>
		<radialGradient id="SVGID_2_" cx="195.7265" cy="439.6703" r="70.7354" gradientUnits="userSpaceOnUse">
			<stop  offset="0.35" style="stop-color:#21AEE5"/>
			<stop  offset="0.75" style="stop-color:#004EA2"/>
			<stop  offset="1" style="stop-color:#09297F"/>
		</radialGradient>
		<path class="st3" d="M216.9,474.6c-0.4-0.4-0.9-0.6-1.6-0.7c-0.7-0.1-2.1,0-2.1,0c-0.9,0-1.3,0.4-1.6,0.7h0
			c-0.5,0.5-0.5,2.2-0.5,2.9c0,0.7,0,2.3,0.5,2.8c0.3,0.3,0.7,0.6,1.6,0.6c0,0,1.4,0.1,2.1,0c0.7-0.1,1.2-0.2,1.6-0.6l0,0
			c0.5-0.5,0.5-2.2,0.5-2.8C217.4,476.8,217.4,475.2,216.9,474.6L216.9,474.6z"/>
		<radialGradient id="SVGID_3_" cx="195.7289" cy="439.6723" r="70.7243" gradientUnits="userSpaceOnUse">
			<stop  offset="0.35" style="stop-color:#21AEE5"/>
			<stop  offset="0.75" style="stop-color:#004EA2"/>
			<stop  offset="1" style="stop-color:#09297F"/>
		</radialGradient>
		<rect x="195.5" y="439.8" class="st4" width="6" height="6"/>
	</g>
</g>
<g>
	<g>
		<path class="st1" d="M132.1,477.5c0,8.5,4.8,12,12.6,12h37.4v-38c0-8.5-4.8-12-12.6-12h-37.4V477.5z"/>
	</g>
	<g>
		<path class="st0" d="M169.5,439.5h-25.2v6h6.2v6.2h-6.2v6.2h-6.2v-6.2h-6v25.8c0,8.5,4.8,12,12.6,12h37.4v-38
			C182.1,443,177.3,439.6,169.5,439.5z M144.6,479.9c0,1.7-1,2.7-2.7,2.7h-4.2v-2h4c0.8,0,0.8-0.6,0.8-1v-8h2.1V479.9z M155.2,481.4
			L155.2,481.4c-0.7,0.8-1.8,1.3-3.2,1.3c-1.6,0.1-2.3,0-2.3,0c-1.4,0-2.4-0.5-3.2-1.3c-0.7-0.8-1-2.8-1-4.2c0-1.5,0.3-3.4,1-4.3
			c0.7-0.8,1.8-1.3,3.2-1.3c0,0,0.7-0.1,2.3,0c1.4,0,2.4,0.5,3.2,1.3c0.7,0.8,1,2.8,1,4.3C156.2,478.6,155.9,480.5,155.2,481.4z
			 M166.2,482.6h-0.3H164H164l-4.7-7.5v7.5h-2.1v-10.9h0.4h1.8h0.1l4.7,7.4v-7.4h2.1V482.6z M165.3,468.7c-0.4,0.2-0.9,0.3-1.4,0.3
			h-6.7v-2h6.3c0.8,0,1.1-0.9,1.1-1.3c0-0.4-0.3-1.2-1.1-1.2h-3.8c-0.8,0-1.4-0.3-1.9-0.8c-0.5-0.5-0.9-1.6-0.9-2.4
			c0-1.1,0.6-2.4,1.4-2.9c0.4-0.2,0.9-0.4,1.4-0.4h6.6v2H160c-0.8,0-1.1,0.9-1.1,1.2c0,0.6,0.4,1.3,1.1,1.3h3.8
			c0.8,0,1.4,0.3,1.9,0.8c0.5,0.5,0.9,1.6,0.9,2.5C166.7,467,166.1,468.2,165.3,468.7z M171.7,458.1h4.8v2h-4.6
			c-1.3,0-2.2,0.9-2.5,2.5h7.1v1.9h-7.1c0.2,1.6,1.1,2.5,2.5,2.5h4.6v2h-4.8c-2.8,0-4.6-2.2-4.6-5.5
			C167.1,460.2,168.9,458.1,171.7,458.1z M176.6,478.1v2.5v1v1h-4.9c-2.8,0-4.6-2.2-4.6-5.5c0-3.3,1.8-5.5,4.6-5.5h4.8v2h-4.6
			c-1.6,0-2.6,1.3-2.6,3.5c0,2.2,1,3.5,2.6,3.5h2.6v-2.5h-2.4v-1.9h2.4h2.1V478.1z"/>
		<path class="st0" d="M153.5,474.2c-0.4-0.4-0.9-0.6-1.6-0.7c-0.7-0.1-2.1,0-2.1,0c-0.9,0-1.3,0.4-1.6,0.7h0
			c-0.5,0.5-0.5,2.2-0.5,2.9c0,0.7,0,2.3,0.5,2.8c0.3,0.3,0.7,0.6,1.6,0.6c0,0,1.4,0.1,2.1,0c0.7-0.1,1.2-0.2,1.6-0.6l0,0
			c0.5-0.5,0.5-2.2,0.5-2.8C154.1,476.5,154,474.8,153.5,474.2L153.5,474.2z"/>
		<rect x="132.1" y="439.5" class="st0" width="6" height="6"/>
	</g>
</g>
</svg>
